<mxfile host="Electron" modified="2024-01-14T20:19:17.662Z" agent="Mozilla/5.0 (Windows NT 10.0; Win64; x64) AppleWebKit/537.36 (KHTML, like Gecko) draw.io/22.0.3 Chrome/114.0.5735.289 Electron/25.8.4 Safari/537.36" etag="T3e1kqnQP_oeQ2cj0_AJ" version="22.0.3" type="device">
  <diagram id="C5RBs43oDa-KdzZeNtuy" name="Page-1">
    <mxGraphModel dx="1571" dy="938" grid="1" gridSize="10" guides="1" tooltips="1" connect="1" arrows="1" fold="1" page="1" pageScale="1" pageWidth="827" pageHeight="1169" math="0" shadow="0">
      <root>
        <mxCell id="WIyWlLk6GJQsqaUBKTNV-0" />
        <mxCell id="WIyWlLk6GJQsqaUBKTNV-1" parent="WIyWlLk6GJQsqaUBKTNV-0" />
        <mxCell id="9KzHBJlBk1zcthoZuy3x-9" style="edgeStyle=orthogonalEdgeStyle;rounded=0;orthogonalLoop=1;jettySize=auto;html=1;exitX=1;exitY=0.5;exitDx=0;exitDy=0;entryX=0;entryY=0.75;entryDx=0;entryDy=0;" edge="1" parent="WIyWlLk6GJQsqaUBKTNV-1" source="9KzHBJlBk1zcthoZuy3x-0" target="9KzHBJlBk1zcthoZuy3x-1">
          <mxGeometry relative="1" as="geometry" />
        </mxCell>
        <mxCell id="9KzHBJlBk1zcthoZuy3x-0" value="&lt;font style=&quot;font-size: 25px;&quot;&gt;DJANGO&lt;/font&gt;" style="whiteSpace=wrap;html=1;aspect=fixed;" vertex="1" parent="WIyWlLk6GJQsqaUBKTNV-1">
          <mxGeometry x="35" y="750" width="130" height="130" as="geometry" />
        </mxCell>
        <mxCell id="9KzHBJlBk1zcthoZuy3x-13" style="edgeStyle=orthogonalEdgeStyle;rounded=0;orthogonalLoop=1;jettySize=auto;html=1;exitX=0;exitY=0.25;exitDx=0;exitDy=0;entryX=1;entryY=0.25;entryDx=0;entryDy=0;" edge="1" parent="WIyWlLk6GJQsqaUBKTNV-1" source="9KzHBJlBk1zcthoZuy3x-1" target="9KzHBJlBk1zcthoZuy3x-0">
          <mxGeometry relative="1" as="geometry" />
        </mxCell>
        <mxCell id="9KzHBJlBk1zcthoZuy3x-1" value="&lt;font style=&quot;font-size: 25px;&quot;&gt;APIS&lt;/font&gt;" style="shape=parallelogram;perimeter=parallelogramPerimeter;whiteSpace=wrap;html=1;fixedSize=1;" vertex="1" parent="WIyWlLk6GJQsqaUBKTNV-1">
          <mxGeometry x="340" y="775" width="120" height="60" as="geometry" />
        </mxCell>
        <mxCell id="9KzHBJlBk1zcthoZuy3x-2" value="&lt;font style=&quot;font-size: 25px;&quot;&gt;BACKEND&lt;/font&gt;" style="text;html=1;align=center;verticalAlign=middle;resizable=0;points=[];autosize=1;strokeColor=none;fillColor=none;" vertex="1" parent="WIyWlLk6GJQsqaUBKTNV-1">
          <mxGeometry x="35" y="950" width="140" height="40" as="geometry" />
        </mxCell>
        <mxCell id="9KzHBJlBk1zcthoZuy3x-3" value="" style="shape=cylinder3;whiteSpace=wrap;html=1;boundedLbl=1;backgroundOutline=1;size=15;" vertex="1" parent="WIyWlLk6GJQsqaUBKTNV-1">
          <mxGeometry x="70" y="500" width="60" height="80" as="geometry" />
        </mxCell>
        <mxCell id="9KzHBJlBk1zcthoZuy3x-16" style="edgeStyle=orthogonalEdgeStyle;rounded=0;orthogonalLoop=1;jettySize=auto;html=1;" edge="1" parent="WIyWlLk6GJQsqaUBKTNV-1" source="9KzHBJlBk1zcthoZuy3x-5">
          <mxGeometry relative="1" as="geometry">
            <mxPoint x="90" y="750" as="targetPoint" />
            <Array as="points">
              <mxPoint x="80" y="710" />
              <mxPoint x="90" y="710" />
            </Array>
          </mxGeometry>
        </mxCell>
        <mxCell id="9KzHBJlBk1zcthoZuy3x-5" value="&lt;font style=&quot;font-size: 25px;&quot;&gt;DATABASE&lt;/font&gt;" style="text;html=1;align=center;verticalAlign=middle;resizable=0;points=[];autosize=1;strokeColor=none;fillColor=none;" vertex="1" parent="WIyWlLk6GJQsqaUBKTNV-1">
          <mxGeometry x="25" y="610" width="150" height="40" as="geometry" />
        </mxCell>
        <mxCell id="9KzHBJlBk1zcthoZuy3x-11" style="edgeStyle=orthogonalEdgeStyle;rounded=0;orthogonalLoop=1;jettySize=auto;html=1;exitX=0;exitY=0.5;exitDx=0;exitDy=0;entryX=1;entryY=0.25;entryDx=0;entryDy=0;" edge="1" parent="WIyWlLk6GJQsqaUBKTNV-1" source="9KzHBJlBk1zcthoZuy3x-7" target="9KzHBJlBk1zcthoZuy3x-1">
          <mxGeometry relative="1" as="geometry" />
        </mxCell>
        <mxCell id="9KzHBJlBk1zcthoZuy3x-7" value="&lt;font style=&quot;font-size: 25px;&quot;&gt;FRONT-END&lt;/font&gt;" style="whiteSpace=wrap;html=1;aspect=fixed;" vertex="1" parent="WIyWlLk6GJQsqaUBKTNV-1">
          <mxGeometry x="620" y="700" width="170" height="170" as="geometry" />
        </mxCell>
        <mxCell id="9KzHBJlBk1zcthoZuy3x-8" value="&lt;font style=&quot;font-size: 25px;&quot;&gt;INTERFACE&lt;/font&gt;" style="text;html=1;align=center;verticalAlign=middle;resizable=0;points=[];autosize=1;strokeColor=none;fillColor=none;" vertex="1" parent="WIyWlLk6GJQsqaUBKTNV-1">
          <mxGeometry x="630" y="950" width="160" height="40" as="geometry" />
        </mxCell>
        <mxCell id="9KzHBJlBk1zcthoZuy3x-10" style="edgeStyle=orthogonalEdgeStyle;rounded=0;orthogonalLoop=1;jettySize=auto;html=1;exitX=1;exitY=0.5;exitDx=0;exitDy=0;entryX=0.01;entryY=0.584;entryDx=0;entryDy=0;entryPerimeter=0;" edge="1" parent="WIyWlLk6GJQsqaUBKTNV-1" source="9KzHBJlBk1zcthoZuy3x-1" target="9KzHBJlBk1zcthoZuy3x-7">
          <mxGeometry relative="1" as="geometry" />
        </mxCell>
        <mxCell id="9KzHBJlBk1zcthoZuy3x-15" style="edgeStyle=orthogonalEdgeStyle;rounded=0;orthogonalLoop=1;jettySize=auto;html=1;exitX=0.5;exitY=0;exitDx=0;exitDy=0;entryX=0.524;entryY=1.118;entryDx=0;entryDy=0;entryPerimeter=0;" edge="1" parent="WIyWlLk6GJQsqaUBKTNV-1" source="9KzHBJlBk1zcthoZuy3x-0" target="9KzHBJlBk1zcthoZuy3x-5">
          <mxGeometry relative="1" as="geometry" />
        </mxCell>
      </root>
    </mxGraphModel>
  </diagram>
</mxfile>
